Coordinates
version=1
nRows=13
nColumns=38
inDegrees=no

Units are S.I. units (second, meters, Newtons, ...)
If the header above contains a line with 'inDegrees', this indicates whether rotational values are in degrees (yes) or radians (no).

endheader
time	pelvis_tilt	pelvis_list	pelvis_rotation	pelvis_tx	pelvis_ty	pelvis_tz	hip_flexion_r	hip_adduction_r	hip_rotation_r	knee_angle_r	ankle_angle_r	subtalar_angle_r	mtp_angle_r	hip_flexion_l	hip_adduction_l	hip_rotation_l	knee_angle_l	ankle_angle_l	subtalar_angle_l	mtp_angle_l	lumbar_extension	lumbar_bending	lumbar_rotation	arm_flex_r	arm_add_r	arm_rot_r	elbow_flex_r	pro_sup_r	wrist_flex_r	wrist_dev_r	arm_flex_l	arm_add_l	arm_rot_l	elbow_flex_l	pro_sup_l	wrist_flex_l	wrist_dev_l
0	-2.18785	1.42892	-2.69493	0.633829	-0.154557	0.949194	0.304315	-0.217048	0.0704311	1.33953	-0.225591	0	0	0.0905283	0.147171	-0.276752	0.23729	0.0346637	0	0	-0.0591957	-0.185588	-0.0733779	-0.287864	-0.0811864	-0.284916	0.364875	0.966092	0	0	-0.327292	-0.322297	0.346157	0.60175	0.567916	0	0
0.01	-2.21405	1.43357	-2.66475	0.632642	-0.145977	0.950638	0.323305	-0.204505	0.070881	1.35349	-0.202798	0	0	0.0728008	0.146547	-0.265366	0.225184	0.0348356	0	0	-0.058352	-0.179759	-0.0779902	-0.28296	-0.0828971	-0.274957	0.352452	0.961243	0	0	-0.326183	-0.322453	0.343444	0.601142	0.564513	0	0
0.02	-2.25395	1.43866	-2.62044	0.631332	-0.137214	0.952181	0.33851	-0.190455	0.0704724	1.36015	-0.185284	0	0	0.0537217	0.144325	-0.255505	0.213146	0.0349191	0	0	-0.0595898	-0.172063	-0.0824759	-0.280249	-0.0849274	-0.266033	0.344215	0.954731	0	0	-0.324034	-0.321857	0.342592	0.599744	0.563178	0	0
0.03	-2.30007	1.44399	-2.56893	0.629986	-0.128524	0.953669	0.352419	-0.176626	0.0681179	1.36151	-0.171572	0	0	0.0349521	0.141096	-0.246004	0.201697	0.0350302	0	0	-0.0614606	-0.163453	-0.0878281	-0.278558	-0.0869354	-0.258483	0.338378	0.949356	0	0	-0.321662	-0.321538	0.343541	0.59907	0.562871	0	0
0.04	-2.33833	1.44702	-2.5243	0.629839	-0.119833	0.955014	0.362207	-0.155766	0.0521026	1.36121	-0.170218	0	0	0.0157311	0.138383	-0.237372	0.189619	0.0355954	0	0	-0.0632592	-0.159282	-0.0942463	-0.278064	-0.0867677	-0.253382	0.334701	0.945189	0	0	-0.320025	-0.323684	0.345052	0.599566	0.562604	0	0
0.05	-2.38414	1.45264	-2.47126	0.628328	-0.111345	0.956145	0.37554	-0.142619	0.049185	1.35324	-0.161705	0	0	-0.000285037	0.1341	-0.229083	0.180215	0.0366498	0	0	-0.0646762	-0.15024	-0.100666	-0.277602	-0.0877796	-0.252104	0.332357	0.943897	0	0	-0.316986	-0.324161	0.346433	0.600691	0.562877	0	0
0.06	-2.43863	1.45784	-2.40859	0.626766	-0.102955	0.95716	0.387142	-0.129882	0.0453218	1.34092	-0.155633	0	0	-0.0171191	0.129445	-0.219978	0.169697	0.0371745	0	0	-0.0671204	-0.14086	-0.10813	-0.277358	-0.0885728	-0.25211	0.331822	0.943536	0	0	-0.313818	-0.324819	0.34706	0.602736	0.563513	0	0
0.07	-2.4982	1.46243	-2.34031	0.625188	-0.0946585	0.958019	0.397647	-0.118281	0.0406687	1.32485	-0.149271	0	0	-0.033821	0.124551	-0.211318	0.159492	0.0379943	0	0	-0.0700608	-0.131558	-0.116533	-0.277991	-0.0891987	-0.253277	0.334608	0.943625	0	0	-0.310827	-0.325545	0.346916	0.605351	0.56493	0	0
0.08	-2.56211	1.46633	-2.26769	0.623599	-0.0864068	0.958741	0.40676	-0.107379	0.0359824	1.30511	-0.14172	0	0	-0.0503316	0.119517	-0.203085	0.149896	0.039805	0	0	-0.0731065	-0.122402	-0.124958	-0.27817	-0.0895519	-0.25532	0.336941	0.944164	0	0	-0.307765	-0.326005	0.345275	0.607975	0.566966	0	0
0.09	-2.62783	1.46954	-2.19336	0.622013	-0.078178	0.95929	0.415179	-0.0977999	0.0309536	1.28279	-0.132485	0	0	-0.0667118	0.114661	-0.194996	0.140467	0.0426589	0	0	-0.0763069	-0.113597	-0.133302	-0.278025	-0.089725	-0.258071	0.339459	0.945443	0	0	-0.30461	-0.326137	0.342319	0.610436	0.569919	0	0
0.1	-2.69608	1.47197	-2.11639	0.620421	-0.0699991	0.959741	0.422489	-0.0895147	0.0254217	1.25758	-0.120678	0	0	-0.0837577	0.109982	-0.185826	0.129897	0.0452992	0	0	-0.0796415	-0.105051	-0.141712	-0.277476	-0.0897644	-0.260992	0.342209	0.947821	0	0	-0.301126	-0.325864	0.33844	0.612223	0.574767	0	0
0.11	-2.75614	1.47419	-2.04835	0.618959	-0.0619142	0.960011	0.430048	-0.0821913	0.0205736	1.2304	-0.107669	0	0	-0.098758	0.105646	-0.17777	0.121421	0.0488018	0	0	-0.0819183	-0.0976002	-0.149419	-0.276083	-0.0896019	-0.263	0.343564	0.950253	0	0	-0.297365	-0.325586	0.334796	0.613026	0.580883	0	0
0.12	-2.80992	1.47601	-1.98725	0.617621	-0.0539131	0.960138	0.437213	-0.0757653	0.0164141	1.2013	-0.0947911	0	0	-0.112562	0.101716	-0.169838	0.11435	0.0530492	0	0	-0.0839341	-0.0911377	-0.156923	-0.273612	-0.0892624	-0.263761	0.343758	0.9519	0	0	-0.293468	-0.325329	0.33105	0.613266	0.587495	0	0
